<svg xmlns="http://www.w3.org/2000/svg" xmlns:xlink="http://www.w3.org/1999/xlink" viewBox="0 0 149.21 130.64"><defs><pattern id="a" width="32.63" height="32.63" patternTransform="translate(19.48 13.8)" patternUnits="userSpaceOnUse" viewBox="0 0 32.63 32.63"><rect width="32.63" height="32.63" style="fill:none"/><rect width="32.63" height="32.63" style="fill:#442d1d"/></pattern><pattern id="ai" width="32.63" height="32.63" patternTransform="translate(32.36 22.05)" patternUnits="userSpaceOnUse" viewBox="0 0 32.63 32.63"><rect width="32.63" height="32.63" style="fill:none"/><rect width="32.63" height="32.63" style="fill:#442d1d"/></pattern></defs><title>drawers_hover</title><rect x="57.76" y="74.2" width="51.07" height="41.94" style="fill:#bed6d4"/><rect x="57.76" y="32.27" width="51.07" height="14.03" style="fill:#bed6d4"/><rect x="5.36" y="32.27" width="52.19" height="83.87" style="fill:#fff"/><polygon points="114.85 27.73 0.25 27.73 34.25 0.25 148.85 0.25 114.85 27.73" style="fill:#fff;stroke-linecap:round;stroke-linejoin:round;stroke-width:0.5px;stroke:url(#a)"/><polygon points="145.77 102.77 111.58 130.39 111.58 32.27 145.77 4.64 145.77 102.77" style="fill:#fff;stroke-linecap:round;stroke-linejoin:round;stroke-width:0.5px;stroke:url(#a)"/><line x1="7.87" y1="128.56" x2="5.6" y2="130.39" style="fill:#fff;stroke-linecap:round;stroke-linejoin:round;stroke-width:0.5px;stroke:url(#a)"/><rect x="7.87" y="116.14" width="100.95" height="12.42" style="fill:#fff;stroke-linecap:round;stroke-linejoin:round;stroke-width:0.5px;stroke:url(#a)"/><rect x="0.25" y="27.73" width="114.6" height="4.53" style="fill:#fff;stroke-linecap:round;stroke-linejoin:round;stroke-width:0.5px;stroke:url(#a)"/><rect x="2.59" y="32.27" width="2.76" height="98.12" style="fill:#fff;stroke-linecap:round;stroke-linejoin:round;stroke-width:0.5px;stroke:url(#a)"/><rect x="108.82" y="32.27" width="2.76" height="98.12" style="fill:#fff;stroke-linecap:round;stroke-linejoin:round;stroke-width:0.5px;stroke:url(#a)"/><rect x="57.76" y="74.2" width="51.07" height="41.94" style="fill:none;stroke-linejoin:round;stroke-width:0.5px;stroke:url(#a)"/><rect x="57.76" y="32.27" width="51.07" height="14.03" style="fill:none;stroke-linejoin:round;stroke-width:0.5px;stroke:url(#a)"/><rect x="5.36" y="32.27" width="52.4" height="83.87" style="fill:none;stroke-linejoin:round;stroke-width:0.5px;stroke:url(#a)"/><polygon points="148.96 4.78 114.85 32.27 114.85 27.73 148.96 0.25 148.96 4.78" style="fill:#fff;stroke-linecap:round;stroke-linejoin:round;stroke-width:0.5px;stroke:url(#a)"/><polygon points="7.87 116.14 5.36 116.14 5.36 130.39 7.87 128.56 7.87 116.14" style="fill:#fff;stroke-linecap:round;stroke-linejoin:round;stroke-width:0.5px;stroke:url(#a)"/><rect x="63.37" y="80.6" width="39.83" height="29.78" style="fill:none;stroke-linejoin:round;stroke-width:0.25px;stroke:url(#a)"/><rect x="64.04" y="81.36" width="38.5" height="28.26" style="fill:none;stroke-linejoin:round;stroke-width:0.25px;stroke:url(#a)"/><rect x="10.81" y="38.58" width="40.17" height="71.8" style="fill:none;stroke-linejoin:round;stroke-width:0.25px;stroke:url(#a)"/><rect x="11.46" y="39.34" width="38.86" height="70.28" style="fill:none;stroke-linejoin:round;stroke-width:0.25px;stroke:url(#a)"/><circle cx="54.28" cy="43.45" r="0.72" style="fill:#fff"/><path d="M54.28,42.73a.72.72,0,1,1-.72.72.72.72,0,0,1,.72-.72m0-.5a1.22,1.22,0,1,0,1.22,1.22,1.22,1.22,0,0,0-1.22-1.22Z" style="fill:url(#a)"/><circle cx="54.28" cy="53.65" r="0.72" style="fill:#fff"/><path d="M54.28,52.92a.73.73,0,1,1-.72.73.73.73,0,0,1,.72-.73m0-.5a1.23,1.23,0,1,0,1.22,1.23,1.23,1.23,0,0,0-1.22-1.23Z" style="fill:url(#a)"/><rect x="52.78" y="38.58" width="1.5" height="19.93" style="fill:#fff"/><path d="M54.28,38.58V58.51h-1.5V38.58h1.5m0-.5h-1.5a.5.5,0,0,0-.5.5V58.51a.5.5,0,0,0,.5.5h1.5a.5.5,0,0,0,.5-.5V38.58a.5.5,0,0,0-.5-.5Z" style="fill:url(#a)"/><circle cx="78.19" cy="38.96" r="0.72" style="fill:#fff"/><path d="M78.19,38.24a.72.72,0,1,1-.72.72.72.72,0,0,1,.72-.72m0-.5A1.22,1.22,0,1,0,79.41,39a1.22,1.22,0,0,0-1.22-1.22Z" style="fill:url(#a)"/><circle cx="88.39" cy="38.96" r="0.72" style="fill:#fff"/><path d="M88.39,38.24a.72.72,0,1,1-.72.72.72.72,0,0,1,.72-.72m0-.5A1.22,1.22,0,1,0,89.61,39a1.22,1.22,0,0,0-1.22-1.22Z" style="fill:url(#a)"/><rect x="73.32" y="38.96" width="19.93" height="1.5" style="fill:#fff"/><path d="M93.26,39v1.5H73.32V39H93.26m0-.5H73.32a.5.5,0,0,0-.5.5v1.5a.5.5,0,0,0,.5.5H93.26a.5.5,0,0,0,.5-.5V39a.5.5,0,0,0-.5-.5Z" style="fill:url(#a)"/><circle cx="78.19" cy="95.1" r="0.72" style="fill:#fff"/><path d="M78.19,94.38a.72.72,0,1,1-.72.72.72.72,0,0,1,.72-.72m0-.5a1.22,1.22,0,1,0,1.22,1.22,1.22,1.22,0,0,0-1.22-1.22Z" style="fill:url(#a)"/><circle cx="88.39" cy="95.1" r="0.72" style="fill:#fff"/><path d="M88.39,94.38a.72.72,0,1,1-.72.72.72.72,0,0,1,.72-.72m0-.5a1.22,1.22,0,1,0,1.22,1.22,1.22,1.22,0,0,0-1.22-1.22Z" style="fill:url(#a)"/><rect x="73.32" y="95.1" width="19.93" height="1.5" style="fill:#fff"/><path d="M93.26,95.1v1.5H73.32V95.1H93.26m0-.5H73.32a.5.5,0,0,0-.5.5v1.5a.5.5,0,0,0,.5.5H93.26a.5.5,0,0,0,.5-.5V95.1a.5.5,0,0,0-.5-.5Z" style="fill:url(#a)"/><polygon points="48.46 55.59 46.99 57.06 46.99 84.97 98.06 84.97 99.53 83.5 99.53 55.59 48.46 55.59" style="fill:#bed6d4"/><polygon points="48.46 55.59 99.53 55.59 99.53 83.5 98.06 84.97 98.06 57.06 46.99 57.06 48.46 55.59" style="fill:none;stroke-linejoin:round;stroke-width:0.5px;stroke:url(#a)"/><rect x="46.99" y="57.06" width="51.07" height="27.9" style="fill:none;stroke-linejoin:round;stroke-width:0.5px;stroke:url(#a)"/><rect x="52.61" y="62.62" width="39.83" height="16.76" style="fill:none;stroke-linejoin:round;stroke-width:0.25px;stroke:url(#a)"/><rect x="53.28" y="63.38" width="38.5" height="15.25" style="fill:none;stroke-linejoin:round;stroke-width:0.25px;stroke:url(#a)"/><circle cx="67.43" cy="70.61" r="0.72" style="fill:#fff"/><path d="M67.43,69.89a.72.72,0,1,1-.72.72.72.72,0,0,1,.72-.72m0-.5a1.22,1.22,0,1,0,1.22,1.22,1.22,1.22,0,0,0-1.22-1.22Z" style="fill:url(#a)"/><circle cx="77.63" cy="70.61" r="0.72" style="fill:#fff"/><path d="M77.63,69.89a.72.72,0,1,1-.73.72.72.72,0,0,1,.73-.72m0-.5a1.22,1.22,0,1,0,1.22,1.22,1.23,1.23,0,0,0-1.22-1.22Z" style="fill:url(#a)"/><rect x="62.56" y="70.61" width="19.93" height="1.5" style="fill:#fff"/><path d="M82.49,70.61v1.5H62.56v-1.5H82.49m0-.5H62.56a.5.5,0,0,0-.5.5v1.5a.5.5,0,0,0,.5.5H82.49a.5.5,0,0,0,.5-.5v-1.5a.5.5,0,0,0-.5-.5Z" style="fill:url(#a)"/><polygon points="99.53 83.5 108.82 74.2 108.82 66.58 99.48 75.93 99.53 83.5" style="fill:#fff"/><polygon points="99.53 83.5 108.82 74.2 108.82 66.58 99.48 75.93 99.53 83.5" style="fill:none;stroke-linejoin:round;stroke-width:0.5px;stroke:url(#a)"/><polygon points="99.53 73.89 108.84 64.59 108.84 66.58 99.49 75.94 99.53 73.89" style="fill:#fff;stroke-linecap:round;stroke-linejoin:round;stroke-width:0.5px;stroke:url(#a)"/><polygon points="57.67 55.5 57.67 46.3 108.82 46.3 108.82 64.59 99.52 73.89 99.52 55.59 57.67 55.5" style="fill:url(#ai)"/></svg>